<svg xmlns="http://www.w3.org/2000/svg" xmlns:xlink="http://www.w3.org/1999/xlink" xmlns:fi="http://pattern.flaticon.com/" x="0" y="0" width="512" height="512" viewBox="0 0 350 350"><rect x="0px" y="0px" width="100%" height="100%" opacity="1" fill="#000000"/><defs><g transform="matrix(0.11340949672029216 -0.02452097286396972 0.02452097286396972 0.11340949672029216 275.6997738957735 115.22746797814597)" id="L1_0"><g><path d="m128.472 185.999c-1.281 0-2.572-.156-3.847-.475-5.115-1.28-9.229-5.003-11.006-9.959l-12.757-35.584c-.105-.296-.395-.494-.719-.494h-23.622c-13.245 0-24.021-10.748-24.021-23.96v-91.567c0-13.212 10.776-23.96 24.021-23.96h14.438c4.143 0 7.5 3.357 7.5 7.5s-3.357 7.5-7.5 7.5h-14.438c-4.975 0-9.021 4.02-9.021 8.96v91.567c0 4.94 4.047 8.96 9.021 8.96h23.623c6.641 0 12.604 4.192 14.84 10.434l12.756 35.582c.036.102.133.371.527.47.413.105.631-.1.714-.175l39.535-35.808c7.478-6.773 17.16-10.503 27.263-10.503h102.699c4.975 0 9.021-4.02 9.021-8.96v-27.186c0-4.143 3.357-7.5 7.5-7.5s7.5 3.357 7.5 7.5v27.187c0 13.212-10.776 23.96-24.021 23.96h-102.699c-6.373 0-12.479 2.352-17.192 6.62l-39.535 35.808c-2.938 2.66-6.713 4.083-10.58 4.083z"/><path d="m315 60.841c-4.143 0-7.5-3.357-7.5-7.5v-29.381c0-4.94-4.047-8.96-9.021-8.96h-172.52c-4.143 0-7.5-3.357-7.5-7.5s3.357-7.5 7.5-7.5h172.519c13.245 0 24.022 10.748 24.022 23.96v29.381c0 4.142-3.358 7.5-7.5 7.5z"/><g><path d="m242.5 60.652h-64.776c-4.143 0-7.5-3.357-7.5-7.5s3.357-7.5 7.5-7.5h64.776c4.143 0 7.5 3.357 7.5 7.5s-3.358 7.5-7.5 7.5z"/><path d="m147.723 60.652h-43.528c-4.143 0-7.5-3.357-7.5-7.5s3.357-7.5 7.5-7.5h43.528c4.143 0 7.5 3.357 7.5 7.5s-3.357 7.5-7.5 7.5z"/><path d="m270.804 95.522h-166.196c-4.143 0-7.5-3.357-7.5-7.5s3.357-7.5 7.5-7.5h166.196c4.143 0 7.5 3.357 7.5 7.5s-3.357 7.5-7.5 7.5z"/></g></g><g><path d="m383.527 348.999c-3.867 0-7.642-1.423-10.579-4.084l-39.535-35.808c-4.713-4.269-10.819-6.62-17.192-6.62h-32.721c-4.143 0-7.5-3.357-7.5-7.5s3.357-7.5 7.5-7.5h32.721c10.103 0 19.785 3.729 27.263 10.503l39.535 35.808c.084.075.302.281.714.175.395-.099.491-.368.528-.47l12.755-35.584c2.235-6.239 8.199-10.432 14.84-10.432h23.623c4.975 0 9.021-4.02 9.021-8.96v-91.567c0-4.94-4.047-8.96-9.021-8.96h-221.958c-4.975 0-9.021 4.02-9.021 8.96v91.567c0 4.94 4.047 8.96 9.021 8.96h34.979c4.143 0 7.5 3.357 7.5 7.5s-3.357 7.5-7.5 7.5h-34.979c-13.245 0-24.021-10.748-24.021-23.96v-91.567c0-13.212 10.776-23.96 24.021-23.96h221.957c13.245 0 24.021 10.748 24.021 23.96v91.567c0 13.212-10.776 23.96-24.021 23.96h-23.623c-.324 0-.613.198-.719.492l-12.756 35.586c-1.777 4.956-5.892 8.679-11.007 9.959-1.274.319-2.565.475-3.846.475z"/><g><path d="m357.5 223.652h-116c-4.143 0-7.5-3.357-7.5-7.5s3.357-7.5 7.5-7.5h116c4.143 0 7.5 3.357 7.5 7.5s-3.358 7.5-7.5 7.5z"/><path d="m278.574 258.522h-37.074c-4.143 0-7.5-3.357-7.5-7.5s3.357-7.5 7.5-7.5h37.074c4.143 0 7.5 3.357 7.5 7.5s-3.358 7.5-7.5 7.5z"/><path d="m407.391 258.522h-98.817c-4.143 0-7.5-3.357-7.5-7.5s3.357-7.5 7.5-7.5h98.817c4.143 0 7.5 3.357 7.5 7.5s-3.357 7.5-7.5 7.5z"/></g></g><g><path d="m138.472 511.999c-1.281 0-2.572-.156-3.847-.475-5.115-1.28-9.229-5.003-11.006-9.959l-12.757-35.584c-.105-.296-.395-.494-.719-.494h-23.622c-13.245 0-24.021-10.748-24.021-23.96v-91.567c0-13.212 10.776-23.96 24.021-23.96h221.957c13.245 0 24.021 10.748 24.021 23.96v23.742c0 4.143-3.357 7.5-7.5 7.5s-7.5-3.357-7.5-7.5v-23.742c0-4.94-4.047-8.96-9.021-8.96h-221.957c-4.975 0-9.021 4.02-9.021 8.96v91.567c0 4.94 4.047 8.96 9.021 8.96h23.623c6.641 0 12.604 4.192 14.84 10.434l12.756 35.582c.036.102.133.371.527.47.413.104.63-.1.714-.175l39.535-35.808c7.478-6.773 17.16-10.503 27.263-10.503h102.699c4.975 0 9.021-4.02 9.021-8.96v-32.825c0-4.143 3.357-7.5 7.5-7.5s7.5 3.357 7.5 7.5v32.825c0 13.212-10.776 23.96-24.021 23.96h-102.699c-6.373 0-12.479 2.352-17.192 6.62l-39.535 35.808c-2.938 2.661-6.713 4.084-10.58 4.084z"/><g><path d="m160.869 386.652h-46.674c-4.143 0-7.5-3.357-7.5-7.5s3.357-7.5 7.5-7.5h46.674c4.143 0 7.5 3.357 7.5 7.5s-3.358 7.5-7.5 7.5z"/><path d="m280.804 421.522h-166.196c-4.143 0-7.5-3.357-7.5-7.5s3.357-7.5 7.5-7.5h166.196c4.143 0 7.5 3.357 7.5 7.5s-3.357 7.5-7.5 7.5z"/></g></g></g><g transform="matrix(0.09176664553286863 -0.011470830469670264 0.011470830469670264 0.09176664553286863 43.74246265837911 46.00865926410907)" id="L1_1"><path d="M187.466,0c-0.1,0.1-0.3,0.1-0.6,0.1c-101.2,0-183.5,82.3-183.5,183.5c0,41.3,14.1,81.4,39.9,113.7l-26.7,62    c-2.2,5.1,0.2,11,5.2,13.1c1.8,0.8,3.8,1,5.7,0.7l97.9-17.2c19.6,7.1,40.2,10.7,61,10.6c101.2,0,183.5-82.3,183.5-183.5    C370.066,82.1,288.366,0.1,187.466,0z M186.466,346.6c-19.3,0-38.4-3.5-56.5-10.3c-1.7-0.7-3.5-0.8-5.3-0.5l-82.4,14.4l21.8-50.7    c1.5-3.5,0.9-7.6-1.6-10.5c-11.8-13.7-21.2-29.3-27.8-46.2c-7.4-18.9-11.2-39-11.2-59.3c0-90.2,73.4-163.5,163.5-163.5    c89.9-0.2,162.9,72.5,163,162.4c0,0.2,0,0.4,0,0.6C349.966,273.3,276.566,346.6,186.466,346.6z"/><path d="M178.666,146.7h-54c-5.5,0-10,4.5-10,10s4.5,10,10,10h54c5.5,0,10-4.5,10-10S184.166,146.7,178.666,146.7z"/><path d="M248.666,196.7h-124c-5.5,0-10,4.5-10,10s4.5,10,10,10h124c5.5,0,10-4.5,10-10S254.166,196.7,248.666,196.7z"/></g><g transform="matrix(0.10087231073456483 0.053402986168936295 -0.053402986168936295 0.10087231073456483 46.30262832265736 200.59439408263682)" id="L1_2"><path d="m256 100c-5.519531 0-10 4.480469-10 10s4.480469 10 10 10 10-4.480469 10-10-4.480469-10-10-10zm0 0"/><path d="m90 280c5.519531 0 10-4.480469 10-10s-4.480469-10-10-10-10 4.480469-10 10 4.480469 10 10 10zm0 0"/><path d="m336 0c-90.027344 0-163.917969 62.070312-169.632812 140.253906-85.738282 4.300782-166.367188 66.125-166.367188 149.746094 0 34.945312 13.828125 68.804688 39 95.632812 4.980469 20.53125-1.066406 42.292969-16.070312 57.296876-2.859376 2.859374-3.714844 7.160156-2.167969 10.898437 1.546875 3.734375 5.191406 6.171875 9.238281 6.171875 28.519531 0 56.003906-11.183594 76.425781-30.890625 19.894531 6.78125 45.851563 10.890625 69.574219 10.890625 90.015625 0 163.898438-62.054688 169.628906-140.222656 20.9375-.929688 42.714844-4.796875 59.945313-10.667969 20.421875 19.707031 47.90625 30.890625 76.425781 30.890625 4.046875 0 7.691406-2.4375 9.238281-6.171875 1.546875-3.738281.691407-8.039063-2.167969-10.898437-15.003906-15.003907-21.050781-36.765626-16.070312-57.296876 25.171875-26.828124 39-60.6875 39-95.632812 0-86.886719-86.839844-150-176-150zm-160 420c-23.601562 0-50.496094-4.632812-68.511719-11.800781-3.859375-1.539063-8.269531-.527344-11.078125 2.539062-12.074218 13.199219-27.773437 22.402344-44.878906 26.632813 9.425781-18.058594 11.832031-39.347656 6.097656-59.519532-.453125-1.589843-1.292968-3.042968-2.445312-4.226562-22.6875-23.367188-35.183594-53.066406-35.183594-83.625 0-70.46875 71.4375-130 156-130 79.851562 0 150 55.527344 150 130 0 71.683594-67.289062 130-150 130zm280.816406-186.375c-1.152344 1.1875-1.992187 2.640625-2.445312 4.226562-5.734375 20.171876-3.328125 41.460938 6.097656 59.519532-17.105469-4.226563-32.804688-13.433594-44.878906-26.632813-2.808594-3.0625-7.21875-4.078125-11.078125-2.539062-15.613281 6.210937-37.886719 10.511719-58.914063 11.550781-2.921875-37.816406-21.785156-73.359375-54.035156-99.75h130.4375c5.523438 0 10-4.476562 10-10s-4.476562-10-10-10h-161.160156c-22.699219-11.554688-48.1875-18.292969-74.421875-19.707031 5.746093-67.164063 70.640625-120.292969 149.582031-120.292969 84.5625 0 156 59.53125 156 130 0 30.558594-12.496094 60.257812-35.183594 83.625zm0 0"/><path d="m256 260h-126c-5.523438 0-10 4.476562-10 10s4.476562 10 10 10h126c5.523438 0 10-4.476562 10-10s-4.476562-10-10-10zm0 0"/><path d="m256 320h-166c-5.523438 0-10 4.476562-10 10s4.476562 10 10 10h166c5.523438 0 10-4.476562 10-10s-4.476562-10-10-10zm0 0"/><path d="m422 100h-126c-5.523438 0-10 4.476562-10 10s4.476562 10 10 10h126c5.523438 0 10-4.476562 10-10s-4.476562-10-10-10zm0 0"/></g><g transform="matrix(1.5423356669375776 -0.626573837581265 0.626573837581265 1.5423356669375776 137.2068699570699 45.30429876598431)" id="L1_3"><g id="XMLID_717_"><g id="XMLID_496_"><path d="m17.5 31h-11c-1.379 0-2.5-1.122-2.5-2.5v-25c0-1.378 1.121-2.5 2.5-2.5h11c1.379 0 2.5 1.122 2.5 2.5v2c0 .276-.224.5-.5.5s-.5-.224-.5-.5v-2c0-.827-.673-1.5-1.5-1.5h-11c-.827 0-1.5.673-1.5 1.5v25c0 .827.673 1.5 1.5 1.5h11c.827 0 1.5-.673 1.5-1.5v-3c0-.276.224-.5.5-.5s.5.224.5.5v3c0 1.378-1.121 2.5-2.5 2.5z" fill="#ffffff" id="XMLID_524_"/><path d="m13.5 4h-3c-.276 0-.5-.224-.5-.5s.224-.5.5-.5h3c.276 0 .5.224.5.5s-.224.5-.5.5z" fill="#ffffff" id="XMLID_498_"/></g><path d="m19.5 24c-.096 0-.192-.027-.277-.084-.229-.153-.292-.463-.139-.693l2-3c.093-.14.249-.223.416-.223h5c.827 0 1.5-.673 1.5-1.5v-9c0-.827-.673-1.5-1.5-1.5h-12c-.827 0-1.5.673-1.5 1.5v9c0 .827.673 1.5 1.5 1.5h4c.276 0 .5.224.5.5s-.224.5-.5.5h-4c-1.379 0-2.5-1.122-2.5-2.5v-9c0-1.378 1.121-2.5 2.5-2.5h12c1.379 0 2.5 1.122 2.5 2.5v9c0 1.378-1.121 2.5-2.5 2.5h-4.732l-1.852 2.777c-.097.145-.255.223-.416.223z" fill="#ffffff" id="XMLID_484_"/><g id="XMLID_2379_"><path d="m16.5 15c-.276 0-.5-.224-.5-.5v-1.5c0-.276.224-.5.5-.5s.5.224.5.5v1.5c0 .276-.224.5-.5.5z" fill="#ffffff" id="XMLID_180_"/><path d="m24.5 15c-.276 0-.5-.224-.5-.5v-1.5c0-.276.224-.5.5-.5s.5.224.5.5v1.5c0 .276-.224.5-.5.5z" fill="#ffffff" id="XMLID_178_"/><path d="m20.5 17c-.889 0-1.641-.579-1.902-1.38-.101-.308.162-.62.486-.62h2.832c.324 0 .587.312.486.62-.261.801-1.013 1.38-1.902 1.38z" fill="#ffffff"/></g></g><path d="m28.5 25c-.225 0-.429-.151-.485-.379l-.5-2c-.066-.268.096-.539.364-.606.264-.07.539.096.606.364l.5 2c.066.268-.096.539-.364.606-.04.01-.081.015-.121.015z" fill="#ffffff" id="XMLID_363_"/><path d="m30.5 23.5c-.161 0-.319-.078-.416-.223l-1-1.5c-.153-.23-.091-.54.139-.693.228-.153.538-.091.693.139l1 1.5c.153.23.091.54-.139.693-.085.057-.181.084-.277.084z" fill="#ffffff" id="XMLID_361_"/><path d="m28 6c-.04 0-.08-.005-.121-.015-.269-.067-.431-.338-.364-.606l.5-2c.066-.268.336-.433.606-.364.269.067.431.338.364.606l-.5 2c-.056.228-.26.379-.485.379z" fill="#ffffff" id="XMLID_362_"/><path d="m29.5 7c-.096 0-.192-.027-.277-.084-.229-.153-.292-.463-.139-.693l1-1.5c.154-.23.465-.291.693-.139.229.153.292.463.139.693l-1 1.5c-.097.145-.255.223-.416.223z" fill="#ffffff" id="XMLID_360_"/></g><g transform="matrix(1.4843887229852761 0.8482221060894668 -0.8482221060894668 1.4843887229852761 318.6355300557018 286.13695364022533)" id="L1_4"><g id="XMLID_22_"><path d="m17.5 4h-3c-.276 0-.5-.224-.5-.5s.224-.5.5-.5h3c.276 0 .5.224.5.5s-.224.5-.5.5z" fill="#ffffff" id="XMLID_485_"/><path d="m8.5 10c-.276 0-.5-.224-.5-.5v-6c0-1.378 1.121-2.5 2.5-2.5h11c1.379 0 2.5 1.122 2.5 2.5v2c0 .277-.224.5-.5.5s-.5-.223-.5-.5v-2c0-.827-.673-1.5-1.5-1.5h-11c-.827 0-1.5.673-1.5 1.5v6c0 .276-.224.5-.5.5z" fill="#ffffff" id="XMLID_19_"/><path d="m21.5 31h-11c-1.379 0-2.5-1.122-2.5-2.5v-2c0-.276.224-.5.5-.5s.5.224.5.5v2c0 .827.673 1.5 1.5 1.5h11c.827 0 1.5-.673 1.5-1.5v-6c0-.276.224-.5.5-.5s.5.224.5.5v6c0 1.378-1.121 2.5-2.5 2.5z" fill="#ffffff" id="XMLID_18_"/><path d="m23.5 21c-.053 0-.106-.008-.158-.026-.204-.068-.342-.259-.342-.474v-3.5h-3.5c-.276 0-.5-.224-.5-.5s.224-.5.5-.5h4c.276 0 .5.224.5.5v2.5l2.1-2.8c.095-.126.243-.2.4-.2h3c.275 0 .5-.224.5-.5v-7c0-.276-.225-.5-.5-.5h-14c-.275 0-.5.224-.5.5v1c0 .276-.224.5-.5.5s-.5-.223-.5-.5v-1c0-.827.673-1.5 1.5-1.5h14c.827 0 1.5.673 1.5 1.5v7c0 .827-.673 1.5-1.5 1.5h-2.75l-2.85 3.8c-.096.128-.246.2-.4.2z" fill="#ffffff" id="XMLID_3_"/><path d="m8.5 25c-.154 0-.304-.072-.4-.2l-2.85-3.8h-2.75c-.827 0-1.5-.673-1.5-1.5v-7c0-.827.673-1.5 1.5-1.5h14c.827 0 1.5.673 1.5 1.5v7c0 .827-.673 1.5-1.5 1.5h-7.5v3.5c0 .215-.138.406-.342.474-.052.018-.105.026-.158.026zm-6-13c-.275 0-.5.224-.5.5v7c0 .276.225.5.5.5h3c.157 0 .306.074.4.2l2.1 2.8v-2.5c0-.276.224-.5.5-.5h8c.275 0 .5-.224.5-.5v-7c0-.276-.225-.5-.5-.5z" fill="#ffffff" id="XMLID_150_"/><path d="m20.5 13h-.101c-.276 0-.5-.224-.5-.5s.224-.5.5-.5h.101c.276 0 .5.224.5.5s-.224.5-.5.5z" fill="#ffffff" id="XMLID_27_"/><path d="m22.5 13h-.101c-.276 0-.5-.224-.5-.5s.224-.5.5-.5h.101c.276 0 .5.224.5.5s-.224.5-.5.5z" fill="#ffffff" id="XMLID_25_"/><path d="m24.5 13h-.101c-.276 0-.5-.224-.5-.5s.224-.5.5-.5h.101c.276 0 .5.224.5.5s-.224.5-.5.5z" fill="#ffffff" id="XMLID_21_"/><path d="m7.5 17h-.101c-.276 0-.5-.224-.5-.5s.224-.5.5-.5h.101c.276 0 .5.224.5.5s-.224.5-.5.5z" fill="#ffffff" id="XMLID_1911_"/><path d="m9.5 17h-.101c-.276 0-.5-.224-.5-.5s.224-.5.5-.5h.101c.276 0 .5.224.5.5s-.224.5-.5.5z" fill="#ffffff" id="XMLID_1910_"/><path d="m11.5 17h-.101c-.276 0-.5-.224-.5-.5s.224-.5.5-.5h.101c.276 0 .5.224.5.5s-.224.5-.5.5z" fill="#ffffff" id="XMLID_1909_"/></g><g id="XMLID_239_"><path d="m14 26h-.101c-.276 0-.5-.224-.5-.5s.224-.5.5-.5h.101c.276 0 .5.224.5.5s-.224.5-.5.5z" fill="#ffffff" id="XMLID_249_"/><path d="m16 26h-.101c-.276 0-.5-.224-.5-.5s.224-.5.5-.5h.101c.276 0 .5.224.5.5s-.224.5-.5.5z" fill="#ffffff" id="XMLID_248_"/><path d="m18 26h-.101c-.276 0-.5-.224-.5-.5s.224-.5.5-.5h.101c.276 0 .5.224.5.5s-.224.5-.5.5z" fill="#ffffff" id="XMLID_247_"/></g></g><g transform="matrix(0.10535250901295427 0.038043963049859034 -0.038043963049859034 0.10535250901295427 109.48331281614404 117.5252342406149)" id="L1_5"><path d="m216.694 215.236c-47.936 0-86.932 39.063-86.932 87.078 0 47.936 38.996 86.932 86.932 86.932s86.932-38.996 86.932-86.932c.001-48.015-38.996-87.078-86.932-87.078zm0 161.964c-41.294 0-74.887-33.593-74.887-74.887 0-41.372 33.593-75.032 74.887-75.032s74.887 33.659 74.887 75.032c0 41.294-33.593 74.887-74.887 74.887z"/><path d="m242.366 268.858-38.584 53.136-12.834-16.877c-2.023-2.651-5.795-3.16-8.442-1.149-2.647 2.016-3.16 5.796-1.149 8.442l17.743 23.327c1.141 1.498 2.913 2.376 4.796 2.376h.067c1.906-.024 3.686-.941 4.807-2.486l43.345-59.696c1.953-2.69 1.357-6.454-1.337-8.411-2.691-1.956-6.451-1.36-8.412 1.338z"/><path d="m428.563 84.755c-.882-.518-1.517-1.282-1.768-2.102l-18.01-60.696c-3.061-10.773-16.181-14.961-24.997-7.905l-47.344 38.255c-.78.62-1.851.929-2.886.757-12.371-1.651-25.26-2.486-38.298-2.486-99.896 0-187.641 52.022-209.995 123.99-51.178 29.299-84.235 75.22-84.235 126.789 0 49.489 30.036 95.375 82.403 125.897.835.486 1.435 1.231 1.69 2.09l18.026 60.786c3.21 10.812 16.346 14.816 25.045 7.795l47.427-38.263c.776-.62 1.733-.89 2.792-.757 12.681 1.682 25.578 2.537 38.329 2.537 102.103 0 187.798-52.983 209.979-123.853 53.55-30.519 84.25-76.646 84.25-126.922-.001-49.437-30.037-95.331-82.408-125.912zm-211.822 364.642c-12.222 0-24.586-.82-36.737-2.431-4.294-.588-8.615.643-11.94 3.321l-47.431 38.263c-2.058 1.666-5.175.722-5.933-1.847l-18.03-60.79c-1.133-3.811-3.678-7.031-7.172-9.066-48.568-28.307-76.424-70.401-76.424-115.49 0-90.391 103.199-148.044 203.666-148.044 120.679 0 227.076 80.978 199.243 178.427-19.326 67.104-101.309 117.657-199.242 117.657zm213.967-128.254c18.207-108.973-103.413-179.876-213.967-179.876-42.862 0-83.501 9.695-115.628 24.876 26.457-60.763 105.147-103.519 194.146-103.519 12.509 0 24.856.8 36.679 2.38 4.219.565 8.576-.588 12.003-3.266l47.395-38.298c2.007-1.597 5.116-.806 5.878 1.878l18.049 60.821c1.161 3.768 3.725 6.972 7.223 9.015 48.579 28.37 76.439 70.471 76.439 115.514 0 42.678-24.676 82.348-68.217 110.475z"/></g><g transform="matrix(0.1171875 0 0 0.1171875 143.99999919891343 231.00000549316428)" id="L1_6"><path d="m268.892 281.541h-205.32c-4.142 0-7.5 3.357-7.5 7.5s3.358 7.5 7.5 7.5h205.319c4.143 0 7.5-3.358 7.5-7.5.001-4.143-3.357-7.5-7.499-7.5z"/><path d="m268.892 328.871h-205.32c-4.142 0-7.5 3.357-7.5 7.5s3.358 7.5 7.5 7.5h205.319c4.143 0 7.5-3.357 7.5-7.5.001-4.143-3.357-7.5-7.499-7.5z"/><path d="m166.232 376.201h-102.66c-4.142 0-7.5 3.358-7.5 7.5 0 4.143 3.358 7.5 7.5 7.5h102.66c4.142 0 7.5-3.357 7.5-7.5s-3.358-7.5-7.5-7.5z"/><path d="m466.209 186.88h-205.32c-4.142 0-7.5 3.357-7.5 7.5s3.358 7.5 7.5 7.5h205.32c4.143 0 7.5-3.357 7.5-7.5s-3.357-7.5-7.5-7.5z"/><path d="m466.209 234.21h-102.66c-4.143 0-7.5 3.357-7.5 7.5s3.357 7.5 7.5 7.5h102.66c4.143 0 7.5-3.357 7.5-7.5s-3.357-7.5-7.5-7.5z"/><path d="m46.45 57.269h150.003c4.142 0 7.5-3.357 7.5-7.5s-3.358-7.5-7.5-7.5h-150.003c-4.142 0-7.5 3.357-7.5 7.5s3.358 7.5 7.5 7.5z"/><path d="m46.45 94.767h75.001c4.142 0 7.5-3.357 7.5-7.5s-3.358-7.5-7.5-7.5h-75.001c-4.142 0-7.5 3.357-7.5 7.5s3.358 7.5 7.5 7.5z"/><path d="m284.041 225.624h-235.619c-26.691 0-48.407 21.715-48.407 48.407v121.698c0 26.692 21.715 48.407 48.407 48.407h1.691l-9.693 53.819c-.916 5.087 1.525 10.155 6.074 12.609 4.605 2.484 10.172 1.668 13.873-1.847l66.367-62.999c1.075-1.021 2.482-1.582 3.964-1.582h153.342c26.692 0 48.407-21.715 48.407-48.407v-121.698c.002-26.692-21.714-48.407-48.406-48.407zm33.407 170.105c0 18.42-14.987 33.407-33.407 33.407h-153.342c-5.342 0-10.417 2.025-14.292 5.703l-59.561 56.538 8.416-46.727c1.457-8.089-4.764-15.515-12.97-15.515h-3.87c-18.42 0-33.406-14.987-33.406-33.407v-121.697c0-18.42 14.986-33.407 33.406-33.407h235.619c18.42 0 33.407 14.987 33.407 33.407z"/><path d="m29.436 133.41h55.94c.115 0 .222.062.279.16l23.893 41.25c2.488 4.297 6.939 6.862 11.904 6.862 4.966 0 9.416-2.565 11.905-6.862l23.892-41.249c.058-.1.165-.161.28-.161h55.939c16.01 0 29.034-13.025 29.034-29.035v-75.341c-.001-16.009-13.025-29.034-29.035-29.034h-184.031c-16.009 0-29.034 13.025-29.034 29.034v3.169c0 4.143 3.358 7.5 7.5 7.5s7.5-3.357 7.5-7.5v-3.169c.001-7.739 6.296-14.034 14.034-14.034h184.031c7.738 0 14.034 6.295 14.034 14.033v75.341c0 7.738-6.296 14.034-14.034 14.034h-55.939c-5.448 0-10.529 2.929-13.26 7.643l-22.817 39.392-22.816-39.392c-2.731-4.714-7.811-7.643-13.26-7.643h-55.94c-7.738 0-14.033-6.296-14.033-14.034v-37.111c0-4.143-3.358-7.5-7.5-7.5s-7.5 3.357-7.5 7.5v37.112c0 16.01 13.025 29.035 29.034 29.035z"/><path d="m468.16 140.754h-209.223c-24.165 0-43.824 19.66-43.824 43.824v13.486c0 4.143 3.358 7.5 7.5 7.5s7.5-3.357 7.5-7.5v-13.486c0-15.894 12.93-28.824 28.823-28.824h209.224c15.894 0 28.824 12.93 28.824 28.824v106.649c0 15.894-12.93 28.824-28.824 28.824h-3.437c-7.824 0-13.728 7.079-12.344 14.765l7.018 38.969-51.027-48.438c-3.596-3.415-8.309-5.296-13.27-5.296h-35.091c-4.143 0-7.5 3.357-7.5 7.5s3.357 7.5 7.5 7.5h35.091c1.1 0 2.145.417 2.942 1.174l58.931 55.942c3.584 3.401 8.929 4.129 13.298 1.769 4.36-2.353 6.698-7.21 5.819-12.084l-8.428-46.8h.497c24.165 0 43.824-19.66 43.824-43.824v-106.65c.001-24.165-19.658-43.824-43.823-43.824z"/></g><path d="m500.361 75.493-63.78-63.778h-.001c-15.623-15.62-41.039-15.619-56.66 0l-320.632 320.624c-1.069 1.07-1.883 2.369-2.378 3.799l-56.311 162.607c-1.254 3.619-.33 7.636 2.378 10.344 2.714 2.721 6.764 3.626 10.344 2.378l162.609-56.312c1.43-.496 2.729-1.309 3.799-2.378l320.632-320.624c15.479-14.836 15.48-41.823 0-56.66zm-84.856 113.229-69.113-69.114c-.003-.003-.007-.007-.01-.01l-23.031-23.031 21.213-21.212 92.155 92.154zm-236.092 236.086-4.437-27.497 210.416-210.416 15.97 15.97zm129.795-314.098 15.965 15.965-210.416 210.415-27.498-4.437zm30.108 30.107 31.935 31.935-210.981 210.981-31.039-.897-.897-31.037zm-266.256 209.804 35.396 5.711 1.056 36.516c.153 5.296 4.411 9.554 9.707 9.707l36.517 1.056 5.711 35.395-79.115 27.398c-3.465-8.139-8.526-15.654-14.769-21.898-6.245-6.244-13.761-11.305-21.9-14.769zm-33.965 98.076c10.665 4.856 19.418 13.606 24.274 24.272l-37.133 12.859zm447.123-330.686-35.357 35.356-92.155-92.154 35.356-35.355c7.823-7.824 20.555-7.821 28.376 0l63.78 63.778c7.723 7.392 7.721 20.983 0 28.375z" transform="matrix(0.07478199154138565 0 0 0.07478199154138565 200.85475540161133 160.85475540161133)" id="L1_7"/><g transform="matrix(0.07734116038155105 -0.019335290053500133 0.019335290053500133 0.07734116038155105 78.25118689027687 329.1506712655553)" id="L1_8"><path d="M498.791,161.127c-17.545-17.546-46.094-17.545-63.645,0.004c-5.398,5.403-39.863,39.896-45.128,45.166V87.426    c0-12.02-4.681-23.32-13.181-31.819L334.412,13.18C325.913,4.68,314.612,0,302.592,0H45.018c-24.813,0-45,20.187-45,45v422    c0,24.813,20.187,45,45,45h300c24.813,0,45-20.187,45-45V333.631L498.79,224.767C516.377,207.181,516.381,178.715,498.791,161.127    z M300.019,30c2.834,0,8.295-0.491,13.18,4.393l42.426,42.427c4.76,4.761,4.394,9.978,4.394,13.18h-60V30z M360.018,467    c0,8.271-6.728,15-15,15h-300c-8.271,0-15-6.729-15-15V45c0-8.271,6.729-15,15-15h225v75c0,8.284,6.716,15,15,15h75v116.323    c0,0-44.254,44.292-44.256,44.293l-21.203,21.204c-1.646,1.646-2.888,3.654-3.624,5.863l-21.214,63.64    c-1.797,5.39-0.394,11.333,3.624,15.35c4.023,4.023,9.968,5.419,15.35,3.624l63.64-21.213c2.209-0.736,4.217-1.977,5.863-3.624    l1.82-1.82V467z M326.378,312.427l21.213,21.213l-8.103,8.103l-31.819,10.606l10.606-31.82L326.378,312.427z M368.8,312.422    l-21.213-21.213c11.296-11.305,61.465-61.517,72.105-72.166l21.213,21.213L368.8,312.422z M477.573,203.558l-15.463,15.476    l-21.213-21.213l15.468-15.481c5.852-5.849,15.366-5.848,21.214,0C483.426,188.19,483.457,197.673,477.573,203.558z"/><path d="M285.018,150h-210c-8.284,0-15,6.716-15,15s6.716,15,15,15h210c8.284,0,15-6.716,15-15S293.302,150,285.018,150z"/><path d="M225.018,210h-150c-8.284,0-15,6.716-15,15s6.716,15,15,15h150c8.284,0,15-6.716,15-15S233.302,210,225.018,210z"/><path d="M225.018,270h-150c-8.284,0-15,6.716-15,15s6.716,15,15,15h150c8.284,0,15-6.716,15-15S233.302,270,225.018,270z"/><path d="M225.018,330h-150c-8.284,0-15,6.716-15,15s6.716,15,15,15h150c8.284,0,15-6.716,15-15S233.302,330,225.018,330z"/><path d="M285.018,422h-90c-8.284,0-15,6.716-15,15s6.716,15,15,15h90c8.284,0,15-6.716,15-15S293.302,422,285.018,422z"/></g><g transform="matrix(0.09721860598406924 0.014956708876941734 -0.014956708876941734 0.09721860598406924 263.67394881320314 20.404295861918285)" id="L1_9"><path d="M406.8,96.4c-8.4-8.8-20-14-33.2-14h-66.4v-0.8c0-10-4-19.6-10.8-26c-6.8-6.8-16-10.8-26-10.8h-120     c-10.4,0-19.6,4-26.4,10.8c-6.8,6.8-10.8,16-10.8,26v0.8h-66c-13.2,0-24.8,5.2-33.2,14c-8.4,8.4-14,20.4-14,33.2v199.2     C0,342,5.2,353.6,14,362c8.4,8.4,20.4,14,33.2,14h326.4c13.2,0,24.8-5.2,33.2-14c8.4-8.4,14-20.4,14-33.2V129.6     C420.8,116.4,415.6,104.8,406.8,96.4z M400,328.8h-0.4c0,7.2-2.8,13.6-7.6,18.4s-11.2,7.6-18.4,7.6H47.2     c-7.2,0-13.6-2.8-18.4-7.6c-4.8-4.8-7.6-11.2-7.6-18.4V129.6c0-7.2,2.8-13.6,7.6-18.4s11.2-7.6,18.4-7.6h77.2     c6,0,10.8-4.8,10.8-10.8V81.2c0-4.4,1.6-8.4,4.4-11.2s6.8-4.4,11.2-4.4h119.6c4.4,0,8.4,1.6,11.2,4.4c2.8,2.8,4.4,6.8,4.4,11.2     v11.6c0,6,4.8,10.8,10.8,10.8H374c7.2,0,13.6,2.8,18.4,7.6s7.6,11.2,7.6,18.4V328.8z"/><path d="M210.4,130.8c-27.2,0-52,11.2-69.6,28.8c-18,18-28.8,42.4-28.8,69.6s11.2,52,28.8,69.6c18,18,42.4,28.8,69.6,28.8     s52-11.2,69.6-28.8c18-18,28.8-42.4,28.8-69.6s-11.2-52-28.8-69.6C262.4,142,237.6,130.8,210.4,130.8z M264.8,284     c-14,13.6-33.2,22.4-54.4,22.4S170,297.6,156,284c-14-14-22.4-33.2-22.4-54.4c0-21.2,8.8-40.4,22.4-54.4     c14-14,33.2-22.4,54.4-22.4s40.4,8.8,54.4,22.4c14,14,22.4,33.2,22.4,54.4C287.6,250.8,278.8,270,264.8,284z"/><circle cx="352" cy="150" r="19"/></g><g transform="matrix(1.9203275367601198 -0.2743324985289764 0.2743324985289764 1.9203275367601198 261.09991084638193 208.69056575520167)" id="L1_10"><path d="m17.453 24c-.168 0-.34-.021-.51-.066l-15.463-4.141c-1.06-.292-1.692-1.39-1.414-2.45l1.951-7.272c.072-.267.346-.422.612-.354.267.071.425.346.354.612l-1.95 7.27c-.139.53.179 1.082.71 1.229l15.457 4.139c.531.14 1.079-.176 1.217-.704l.781-2.894c.072-.267.346-.426.613-.353.267.072.424.347.353.613l-.78 2.89c-.235.89-1.045 1.481-1.931 1.481z"/><path d="m22 18h-16c-1.103 0-2-.897-2-2v-12c0-1.103.897-2 2-2h16c1.103 0 2 .897 2 2v12c0 1.103-.897 2-2 2zm-16-15c-.551 0-1 .449-1 1v12c0 .551.449 1 1 1h16c.551 0 1-.449 1-1v-12c0-.551-.449-1-1-1z"/><path d="m9 9c-1.103 0-2-.897-2-2s.897-2 2-2 2 .897 2 2-.897 2-2 2zm0-3c-.551 0-1 .449-1 1s.449 1 1 1 1-.449 1-1-.449-1-1-1z"/><path d="m4.57 16.93c-.128 0-.256-.049-.354-.146-.195-.195-.195-.512 0-.707l4.723-4.723c.566-.566 1.555-.566 2.121 0l1.406 1.406 3.892-4.67c.283-.339.699-.536 1.142-.54h.011c.438 0 .853.19 1.139.523l5.23 6.102c.18.209.156.525-.054.705-.209.18-.524.157-.705-.054l-5.23-6.102c-.097-.112-.231-.174-.38-.174-.104-.009-.287.063-.384.18l-4.243 5.091c-.09.108-.221.173-.362.179-.142.01-.277-.046-.376-.146l-1.793-1.793c-.189-.188-.518-.188-.707 0l-4.723 4.723c-.097.097-.225.146-.353.146z"/></g><g transform="matrix(0.12883995626379618 0.03513816908561471 -0.03513816908561471 0.12883995626379618 30.07803921976857 117.71227933951224)" id="L1_11"><path d="M147.998,0C66.392,0,0,66.392,0,147.998s66.392,147.998,147.998,147.998s147.998-66.392,147.998-147.998   S229.605,0,147.998,0z M147.998,279.996c-36.256,0-69.143-14.696-93.022-38.44c-9.536-9.482-17.631-20.41-23.934-32.42   C21.442,190.847,16,170.047,16,147.998C16,75.214,75.214,16,147.998,16c34.523,0,65.987,13.328,89.533,35.102   c12.208,11.288,22.289,24.844,29.558,39.996c8.27,17.239,12.907,36.538,12.907,56.9   C279.996,220.782,220.782,279.996,147.998,279.996z"/><circle cx="99" cy="114" r="16"/><circle cx="198" cy="114" r="16"/><path d="M147.715,229.995c30.954,0,60.619-15.83,77.604-42.113l-13.439-8.684c-15.597,24.135-44.126,37.604-72.693,34.308   c-22.262-2.567-42.849-15.393-55.072-34.308l-13.438,8.684c14.79,22.889,39.716,38.409,66.676,41.519   C140.814,229.8,144.27,229.995,147.715,229.995z"/></g><g transform="matrix(0.09837962715472892 -0.03472222142240625 0.03472222142240625 0.09837962715472892 193.93284558791194 303.7164823084328)" id="L1_12"><g><path d="m454.433 68.925 8.348 23.473c.357 1.005 1.065 1.801 1.958 2.204l20.854 9.396c2.946 1.328 2.946 6.022 0 7.349l-20.854 9.396c-.893.402-1.6 1.199-1.958 2.204l-8.348 23.473c-1.179 3.316-5.35 3.316-6.529 0l-8.348-23.473c-.357-1.005-1.065-1.801-1.958-2.204l-20.854-9.396c-2.946-1.327-2.946-6.022 0-7.349l20.854-9.396c.893-.402 1.6-1.199 1.958-2.204l8.348-23.473c1.179-3.316 5.349-3.316 6.529 0z"/><path d="m142.415 1.845 6.192 17.412c.265.745.79 1.336 1.452 1.635l15.47 6.97c2.186.985 2.186 4.467 0 5.451l-15.47 6.97c-.662.298-1.187.889-1.452 1.635l-6.192 17.412c-.875 2.46-3.969 2.46-4.844 0l-6.192-17.412c-.265-.745-.79-1.336-1.452-1.635l-15.47-6.97c-2.185-.985-2.185-4.467 0-5.451l15.47-6.97c.662-.298 1.187-.889 1.452-1.635l6.192-17.412c.875-2.46 3.969-2.46 4.844 0z"/><path d="m395.26 38.202c0 6.774-5.491 12.265-12.265 12.265s-12.266-5.492-12.266-12.265c0-6.774 5.491-12.266 12.266-12.266 6.774 0 12.265 5.491 12.265 12.266z"/><path d="m60.433 106.525c0 10.006-8.112 18.118-18.118 18.118s-18.118-8.112-18.118-18.118 8.112-18.118 18.118-18.118c10.006.001 18.118 8.112 18.118 18.118z"/></g><g><path d="m247.513 512c-114.218 0-207.14-92.923-207.14-207.14s92.922-207.14 207.14-207.14 207.14 92.923 207.14 207.14c-.001 114.217-92.923 207.14-207.14 207.14zm0-394.168c-103.128 0-187.027 83.9-187.027 187.027s83.9 187.028 187.027 187.028 187.027-83.9 187.027-187.027-83.9-187.028-187.027-187.028z"/><path d="m200.923 258.489c-5.553 0-10.056-4.502-10.056-10.056 0-15.434-12.556-27.99-27.989-27.99-15.434 0-27.99 12.556-27.99 27.99 0 5.554-4.503 10.056-10.056 10.056s-10.056-4.502-10.056-10.056c0-26.524 21.579-48.102 48.103-48.102 26.523 0 48.102 21.579 48.102 48.102-.002 5.554-4.505 10.056-10.058 10.056z"/><path d="m370.195 258.489c-5.553 0-10.056-4.502-10.056-10.056 0-15.434-12.556-27.99-27.99-27.99-15.433 0-27.989 12.556-27.989 27.99 0 5.554-4.503 10.056-10.056 10.056s-10.056-4.502-10.056-10.056c0-26.524 21.579-48.102 48.102-48.102 26.524 0 48.103 21.579 48.103 48.102-.002 5.554-4.505 10.056-10.058 10.056z"/><path d="m381.347 298.535h-267.668c-5.553 0-10.056 4.502-10.056 10.056 0 79.341 64.549 143.89 143.89 143.89s143.89-64.549 143.89-143.89c0-5.553-4.503-10.056-10.056-10.056zm-210.227 107.372c13.725-21.999 43.33-36.345 76.393-36.345 33.062 0 62.667 14.346 76.393 36.345-21.054 16.564-47.588 26.462-76.393 26.462s-55.339-9.898-76.393-26.462zm167.698-13.842c-18.123-25.931-52.979-42.615-91.306-42.615-38.328 0-73.187 16.682-91.308 42.613-18.03-19.706-29.789-45.241-32.066-73.415h246.747c-2.276 28.175-14.035 53.711-32.067 73.417z"/></g></g></defs><g fi:class="KUsePattern"><pattern id="pattern_L1_0" width="350" height="350" patternUnits="userSpaceOnUse"><use xlink:href="#L1_0" x="-350" y="-350"/><use xlink:href="#L1_0" x="0" y="-350"/><use xlink:href="#L1_0" x="350" y="-350"/><use xlink:href="#L1_0" x="-350" y="0"/><use xlink:href="#L1_0" x="0" y="0"/><use xlink:href="#L1_0" x="350" y="0"/><use xlink:href="#L1_0" x="-350" y="350"/><use xlink:href="#L1_0" x="0" y="350"/><use xlink:href="#L1_0" x="350" y="350"/></pattern><rect x="0" y="0" width="100%" height="100%" fill="url(#pattern_L1_0)"/></g><g fi:class="KUsePattern"><pattern id="pattern_L1_1" width="350" height="350" patternUnits="userSpaceOnUse"><use xlink:href="#L1_1" x="-350" y="-350"/><use xlink:href="#L1_1" x="0" y="-350"/><use xlink:href="#L1_1" x="350" y="-350"/><use xlink:href="#L1_1" x="-350" y="0"/><use xlink:href="#L1_1" x="0" y="0"/><use xlink:href="#L1_1" x="350" y="0"/><use xlink:href="#L1_1" x="-350" y="350"/><use xlink:href="#L1_1" x="0" y="350"/><use xlink:href="#L1_1" x="350" y="350"/></pattern><rect x="0" y="0" width="100%" height="100%" fill="url(#pattern_L1_1)"/></g><g fi:class="KUsePattern"><pattern id="pattern_L1_2" width="350" height="350" patternUnits="userSpaceOnUse"><use xlink:href="#L1_2" x="-350" y="-350"/><use xlink:href="#L1_2" x="0" y="-350"/><use xlink:href="#L1_2" x="350" y="-350"/><use xlink:href="#L1_2" x="-350" y="0"/><use xlink:href="#L1_2" x="0" y="0"/><use xlink:href="#L1_2" x="350" y="0"/><use xlink:href="#L1_2" x="-350" y="350"/><use xlink:href="#L1_2" x="0" y="350"/><use xlink:href="#L1_2" x="350" y="350"/></pattern><rect x="0" y="0" width="100%" height="100%" fill="url(#pattern_L1_2)"/></g><g fi:class="KUsePattern"><pattern id="pattern_L1_3" width="350" height="350" patternUnits="userSpaceOnUse"><use xlink:href="#L1_3" x="-350" y="-350"/><use xlink:href="#L1_3" x="0" y="-350"/><use xlink:href="#L1_3" x="350" y="-350"/><use xlink:href="#L1_3" x="-350" y="0"/><use xlink:href="#L1_3" x="0" y="0"/><use xlink:href="#L1_3" x="350" y="0"/><use xlink:href="#L1_3" x="-350" y="350"/><use xlink:href="#L1_3" x="0" y="350"/><use xlink:href="#L1_3" x="350" y="350"/></pattern><rect x="0" y="0" width="100%" height="100%" fill="url(#pattern_L1_3)"/></g><g fi:class="KUsePattern"><pattern id="pattern_L1_4" width="350" height="350" patternUnits="userSpaceOnUse"><use xlink:href="#L1_4" x="-350" y="-350"/><use xlink:href="#L1_4" x="0" y="-350"/><use xlink:href="#L1_4" x="350" y="-350"/><use xlink:href="#L1_4" x="-350" y="0"/><use xlink:href="#L1_4" x="0" y="0"/><use xlink:href="#L1_4" x="350" y="0"/><use xlink:href="#L1_4" x="-350" y="350"/><use xlink:href="#L1_4" x="0" y="350"/><use xlink:href="#L1_4" x="350" y="350"/></pattern><rect x="0" y="0" width="100%" height="100%" fill="url(#pattern_L1_4)"/></g><g fi:class="KUsePattern"><pattern id="pattern_L1_5" width="350" height="350" patternUnits="userSpaceOnUse"><use xlink:href="#L1_5" x="-350" y="-350"/><use xlink:href="#L1_5" x="0" y="-350"/><use xlink:href="#L1_5" x="350" y="-350"/><use xlink:href="#L1_5" x="-350" y="0"/><use xlink:href="#L1_5" x="0" y="0"/><use xlink:href="#L1_5" x="350" y="0"/><use xlink:href="#L1_5" x="-350" y="350"/><use xlink:href="#L1_5" x="0" y="350"/><use xlink:href="#L1_5" x="350" y="350"/></pattern><rect x="0" y="0" width="100%" height="100%" fill="url(#pattern_L1_5)"/></g><g fi:class="KUsePattern"><pattern id="pattern_L1_6" width="350" height="350" patternUnits="userSpaceOnUse"><use xlink:href="#L1_6" x="-350" y="-350"/><use xlink:href="#L1_6" x="0" y="-350"/><use xlink:href="#L1_6" x="350" y="-350"/><use xlink:href="#L1_6" x="-350" y="0"/><use xlink:href="#L1_6" x="0" y="0"/><use xlink:href="#L1_6" x="350" y="0"/><use xlink:href="#L1_6" x="-350" y="350"/><use xlink:href="#L1_6" x="0" y="350"/><use xlink:href="#L1_6" x="350" y="350"/></pattern><rect x="0" y="0" width="100%" height="100%" fill="url(#pattern_L1_6)"/></g><g fi:class="KUsePattern"><pattern id="pattern_L1_7" width="350" height="350" patternUnits="userSpaceOnUse"><use xlink:href="#L1_7" x="-350" y="-350"/><use xlink:href="#L1_7" x="0" y="-350"/><use xlink:href="#L1_7" x="350" y="-350"/><use xlink:href="#L1_7" x="-350" y="0"/><use xlink:href="#L1_7" x="0" y="0"/><use xlink:href="#L1_7" x="350" y="0"/><use xlink:href="#L1_7" x="-350" y="350"/><use xlink:href="#L1_7" x="0" y="350"/><use xlink:href="#L1_7" x="350" y="350"/></pattern><rect x="0" y="0" width="100%" height="100%" fill="url(#pattern_L1_7)"/></g><g fi:class="KUsePattern"><pattern id="pattern_L1_8" width="350" height="350" patternUnits="userSpaceOnUse"><use xlink:href="#L1_8" x="-350" y="-350"/><use xlink:href="#L1_8" x="0" y="-350"/><use xlink:href="#L1_8" x="350" y="-350"/><use xlink:href="#L1_8" x="-350" y="0"/><use xlink:href="#L1_8" x="0" y="0"/><use xlink:href="#L1_8" x="350" y="0"/><use xlink:href="#L1_8" x="-350" y="350"/><use xlink:href="#L1_8" x="0" y="350"/><use xlink:href="#L1_8" x="350" y="350"/></pattern><rect x="0" y="0" width="100%" height="100%" fill="url(#pattern_L1_8)"/></g><g fi:class="KUsePattern"><pattern id="pattern_L1_9" width="350" height="350" patternUnits="userSpaceOnUse"><use xlink:href="#L1_9" x="-350" y="-350"/><use xlink:href="#L1_9" x="0" y="-350"/><use xlink:href="#L1_9" x="350" y="-350"/><use xlink:href="#L1_9" x="-350" y="0"/><use xlink:href="#L1_9" x="0" y="0"/><use xlink:href="#L1_9" x="350" y="0"/><use xlink:href="#L1_9" x="-350" y="350"/><use xlink:href="#L1_9" x="0" y="350"/><use xlink:href="#L1_9" x="350" y="350"/></pattern><rect x="0" y="0" width="100%" height="100%" fill="url(#pattern_L1_9)"/></g><g fi:class="KUsePattern"><pattern id="pattern_L1_10" width="350" height="350" patternUnits="userSpaceOnUse"><use xlink:href="#L1_10" x="-350" y="-350"/><use xlink:href="#L1_10" x="0" y="-350"/><use xlink:href="#L1_10" x="350" y="-350"/><use xlink:href="#L1_10" x="-350" y="0"/><use xlink:href="#L1_10" x="0" y="0"/><use xlink:href="#L1_10" x="350" y="0"/><use xlink:href="#L1_10" x="-350" y="350"/><use xlink:href="#L1_10" x="0" y="350"/><use xlink:href="#L1_10" x="350" y="350"/></pattern><rect x="0" y="0" width="100%" height="100%" fill="url(#pattern_L1_10)"/></g><g fi:class="KUsePattern"><pattern id="pattern_L1_11" width="350" height="350" patternUnits="userSpaceOnUse"><use xlink:href="#L1_11" x="-350" y="-350"/><use xlink:href="#L1_11" x="0" y="-350"/><use xlink:href="#L1_11" x="350" y="-350"/><use xlink:href="#L1_11" x="-350" y="0"/><use xlink:href="#L1_11" x="0" y="0"/><use xlink:href="#L1_11" x="350" y="0"/><use xlink:href="#L1_11" x="-350" y="350"/><use xlink:href="#L1_11" x="0" y="350"/><use xlink:href="#L1_11" x="350" y="350"/></pattern><rect x="0" y="0" width="100%" height="100%" fill="url(#pattern_L1_11)"/></g><g fi:class="KUsePattern"><pattern id="pattern_L1_12" width="350" height="350" patternUnits="userSpaceOnUse"><use xlink:href="#L1_12" x="-350" y="-350"/><use xlink:href="#L1_12" x="0" y="-350"/><use xlink:href="#L1_12" x="350" y="-350"/><use xlink:href="#L1_12" x="-350" y="0"/><use xlink:href="#L1_12" x="0" y="0"/><use xlink:href="#L1_12" x="350" y="0"/><use xlink:href="#L1_12" x="-350" y="350"/><use xlink:href="#L1_12" x="0" y="350"/><use xlink:href="#L1_12" x="350" y="350"/></pattern><rect x="0" y="0" width="100%" height="100%" fill="url(#pattern_L1_12)"/></g></svg>